<?xml version="1.0" encoding="iso-8859-1"?>
<!-- Uploaded to: SVG Repo, www.svgrepo.com, Generator: SVG Repo Mixer Tools -->
<svg height="800px" width="800px" version="1.1" id="Layer_1" xmlns="http://www.w3.org/2000/svg" xmlns:xlink="http://www.w3.org/1999/xlink" 
	 viewBox="0 0 512 512" xml:space="preserve">
<g transform="translate(1 1)">
	<path style="fill:#FD9808;" d="M272.067,434.2c-18.773,0-34.133,15.36-34.133,34.133c0,18.773,15.36,34.133,34.133,34.133h170.667
		V434.2H272.067L272.067,434.2z"/>
	<path style="fill:#FFFFFF;" d="M101.4,434.2c-18.773,0-34.133,15.36-34.133,34.133c0,18.773,15.36,34.133,34.133,34.133h170.667
		V434.2H101.4z"/>
	<path style="fill:#FFDD09;" d="M127,434.2c-18.773,0-34.133,15.36-34.133,34.133c0,18.773,15.36,34.133,34.133,34.133h290.133
		V434.2H127z"/>
	<path style="fill:#FD9808;" d="M67.267,41.667v426.667c0-18.773,15.36-34.133,34.133-34.133h341.333V7.533H101.4
		C82.627,7.533,67.267,22.893,67.267,41.667"/>
	<path style="fill:#FFDD09;" d="M67.267,41.667v426.667c0-18.773,14.507-34.133,31.573-34.133h318.293V7.533H98.84
		C81.773,7.533,67.267,22.893,67.267,41.667"/>
	<path style="fill:#FFFFFF;" d="M92.867,41.667c0-18.773,14.507-34.133,31.573-34.133h-25.6c-17.067,0-31.573,15.36-31.573,34.133
		v426.667c0-16.213,11.093-30.72,25.6-33.28V41.667z"/>
	<g>
		<path style="fill:#1CD759;" d="M280.6,144.067c0,0,3.413,17.067,34.133,17.067s42.667-17.067,42.667-17.067l17.067,25.6
			c0,0-15.36,15.36-9.387,40.107c0,1.707,4.267,13.653,7.68,27.307c6.827,24.747-5.12,69.973-36.693,88.747c0,0,0,0-0.853,0
			l-6.827,3.413c0,0-47.787,20.48-47.787,35.84c0-15.36-47.787-35.84-47.787-35.84l-6.827-3.413c0,0,0,0-0.853,0
			c-31.573-18.773-43.52-64-36.693-88.747c3.413-13.653,7.68-25.6,7.68-27.307c5.973-24.747-9.387-40.107-9.387-40.107l17.067-25.6
			c0,0,11.947,17.067,42.667,17.067S280.6,144.067,280.6,144.067"/>
		<polygon style="fill:#1CD759;" points="246.467,92.867 212.333,67.267 178.2,92.867 178.2,7.533 246.467,7.533 		"/>
	</g>
	<polygon style="fill:#54C9FD;" points="280.6,195.267 297.667,229.4 331.8,229.4 307.907,260.973 314.733,297.667 280.6,281.453 
		246.467,297.667 253.293,260.973 229.4,229.4 263.533,229.4 	"/>
	<path d="M246.467,101.4c-1.707,0-3.413-0.853-5.12-1.707l-29.013-22.187L183.32,98.84c-2.56,1.707-5.973,2.56-8.533,0.853
		c-3.413-0.853-5.12-3.413-5.12-6.827V7.533c0-5.12,3.413-8.533,8.533-8.533h68.267C251.587-1,255,2.413,255,7.533v85.333
		c0,3.413-1.707,5.973-5.12,7.68C249.027,101.4,248.173,101.4,246.467,101.4z M212.333,58.733c1.707,0,3.413,0.853,5.12,1.707
		l20.48,15.36V16.067h-51.2V75.8l20.48-15.36C208.92,59.587,210.627,58.733,212.333,58.733z"/>
	<path d="M442.733,511H101.4c-23.893,0-42.667-18.773-42.667-42.667c0-23.893,18.773-42.667,42.667-42.667h341.333
		c5.12,0,8.533,3.413,8.533,8.533v68.267C451.267,507.587,447.853,511,442.733,511z M101.4,442.733c-14.507,0-25.6,11.093-25.6,25.6
		c0,14.507,11.093,25.6,25.6,25.6h332.8v-51.2H101.4z"/>
	<path d="M67.267,476.867c-5.12,0-8.533-3.413-8.533-8.533V41.667C58.733,17.773,77.507-1,101.4-1h341.333
		c5.12,0,8.533,3.413,8.533,8.533V434.2c0,5.12-3.413,8.533-8.533,8.533H101.4c-14.507,0-25.6,11.093-25.6,25.6
		C75.8,473.453,72.387,476.867,67.267,476.867z M101.4,16.067c-14.507,0-25.6,11.093-25.6,25.6V434.2
		c6.827-5.12,16.213-8.533,25.6-8.533h332.8v-409.6H101.4z"/>
	<path d="M400.067,476.867H109.933c-5.12,0-8.533-3.413-8.533-8.533c0-5.12,3.413-8.533,8.533-8.533h290.133
		c5.12,0,8.533,3.413,8.533,8.533C408.6,473.453,405.187,476.867,400.067,476.867z"/>
	<path d="M280.6,374.467c-5.12,0-8.533-4.267-8.533-8.533c-0.853-5.12-21.333-18.773-42.667-28.16l-7.68-3.413
		c0,0-0.853-0.853-1.707-0.853c-33.28-20.48-48.64-68.267-40.107-98.133c2.56-8.533,4.267-16.213,5.973-21.333
		c0.853-2.56,1.707-5.12,1.707-5.12c4.267-19.627-7.68-32.427-7.68-32.427c-2.56-2.56-3.413-7.68-0.853-10.24l17.067-25.6
		c1.707-2.56,4.267-3.413,6.827-3.413s5.12,1.707,6.827,3.413c0,0.853,10.24,13.653,35.84,13.653c22.187,0,25.6-10.24,25.6-10.24
		c0.853-3.413,5.12-6.827,8.533-5.973c3.413,0,6.827,2.56,7.68,5.973c0,0.853,4.267,10.24,25.6,10.24
		c25.6,0,34.987-12.8,35.84-13.653c1.707-2.56,4.267-3.413,6.827-3.413c2.56,0,5.12,1.707,6.827,3.413l17.067,25.6
		c2.56,3.413,1.707,7.68-0.853,10.24c-0.853,0.853-11.947,12.8-7.68,32.427c0,0.853,0.853,2.56,1.707,5.12
		c1.707,5.12,4.267,12.8,5.973,21.333c8.533,29.867-7.68,78.507-40.107,98.987l-2.56,1.707l-4.267,1.707
		c-21.333,9.387-41.813,23.04-42.667,28.16l0,0C289.133,371.053,284.867,374.467,280.6,374.467z M196.973,169.667
		c5.12,7.68,11.947,23.04,7.68,42.667c0,0.853-0.853,3.413-1.707,6.827c-1.707,5.12-4.267,12.8-5.973,21.333
		c-5.973,20.48,4.267,62.293,33.28,79.36l6.827,3.413c11.093,4.267,31.573,14.507,43.52,26.453
		c11.947-11.947,33.28-22.187,44.373-26.453l6.827-3.413c29.013-17.067,38.4-58.88,33.28-79.36
		c-2.56-8.533-4.267-16.213-5.973-21.333c-1.707-4.267-2.56-6.827-2.56-6.827c-4.267-19.627,2.56-34.987,7.68-42.667l-8.533-11.947
		c-7.68,5.12-20.48,11.947-40.96,11.947c-17.92,0-28.16-5.12-34.133-11.093c-5.973,5.12-16.213,11.093-34.133,11.093
		c-20.48,0-33.28-6.827-40.96-12.8L196.973,169.667z"/>
	<path d="M314.733,306.2c-0.853,0-2.56,0-3.413-0.853L280.6,290.84l-30.72,14.507c-2.56,1.707-5.973,0.853-8.533-0.853
		c-2.56-1.707-3.413-5.12-3.413-8.533l5.973-32.427l-21.333-29.013c-1.707-2.56-2.56-5.973-0.853-8.533
		c1.707-2.56,4.267-5.12,7.68-5.12h29.013l14.507-29.013c2.56-5.973,12.8-5.973,15.36,0l14.507,29.013H331.8
		c3.413,0,5.973,1.707,7.68,5.12c1.707,2.56,0.853,5.973-0.853,8.533l-21.333,29.013l5.973,32.427
		c0.853,3.413-0.853,6.827-3.413,8.533C318.147,305.347,316.44,306.2,314.733,306.2z M246.467,237.933l13.653,17.92
		c1.707,1.707,1.707,4.267,1.707,6.827l-3.413,19.627l18.773-9.387c2.56-0.853,5.12-0.853,7.68,0l18.773,9.387l-3.413-19.627
		c-0.853-2.56,0-5.12,1.707-6.827l12.8-17.92h-17.067c-3.413,0-5.973-1.707-7.68-5.12l-9.387-17.92l-9.387,18.773
		c-0.853,2.56-4.267,4.267-7.68,4.267H246.467z"/>
	<path d="M67.267,476.867c-5.12,0-8.533-3.413-8.533-8.533V41.667C58.733,17.773,77.507-1,101.4-1h17.067
		C123.587-1,127,2.413,127,7.533V434.2c0,5.12-3.413,8.533-8.533,8.533H101.4c-14.507,0-25.6,11.093-25.6,25.6
		C75.8,473.453,72.387,476.867,67.267,476.867z M101.4,16.067c-14.507,0-25.6,11.093-25.6,25.6V434.2
		c6.827-5.12,16.213-8.533,25.6-8.533h8.533v-409.6H101.4z"/>
</g>
</svg>